<?xml version="1.0" encoding="utf-8"?>
<!-- Generator: Adobe Illustrator 23.0.1, SVG Export Plug-In . SVG Version: 6.00 Build 0)  -->
<svg version="1.1" id="Layer_1" xmlns="http://www.w3.org/2000/svg" xmlns:xlink="http://www.w3.org/1999/xlink" x="0px" y="0px"
	 viewBox="0 0 595.28 841.89" style="enable-background:new 0 0 595.28 841.89;" xml:space="preserve">
<style type="text/css">
	.st0{clip-path:url(#SVGID_1_);}
	.st1{clip-path:url(#SVGID_2_);fill:url(#SVGID_3_);}
	.st2{clip-path:url(#SVGID_4_);fill:url(#SVGID_5_);}
	.st3{clip-path:url(#SVGID_6_);fill:url(#SVGID_7_);}
	.st4{clip-path:url(#SVGID_8_);fill:url(#SVGID_9_);}
	.st5{clip-path:url(#SVGID_10_);fill:url(#SVGID_11_);}
	.st6{clip-path:url(#SVGID_12_);fill:url(#SVGID_13_);}
	.st7{clip-path:url(#SVGID_14_);fill:url(#SVGID_15_);}
	.st8{clip-path:url(#SVGID_16_);fill:url(#SVGID_17_);}
	.st9{clip-path:url(#SVGID_18_);fill:url(#SVGID_19_);}
	.st10{clip-path:url(#SVGID_20_);fill:url(#SVGID_21_);}
	.st11{clip-path:url(#SVGID_22_);fill:url(#SVGID_23_);}
	.st12{clip-path:url(#SVGID_24_);fill:url(#SVGID_25_);}
	.st13{clip-path:url(#SVGID_26_);fill:url(#SVGID_53_);}
	.st14{clip-path:url(#SVGID_54_);fill:url(#SVGID_55_);}
	.st15{clip-path:url(#SVGID_56_);fill:url(#SVGID_57_);}
	.st16{clip-path:url(#SVGID_58_);fill:url(#SVGID_59_);}
	.st17{clip-path:url(#SVGID_60_);fill:url(#SVGID_61_);}
	.st18{clip-path:url(#SVGID_62_);fill:url(#SVGID_63_);}
	.st19{clip-path:url(#SVGID_64_);fill:url(#SVGID_65_);}
	.st20{clip-path:url(#SVGID_66_);fill:url(#SVGID_67_);}
	.st21{clip-path:url(#SVGID_68_);fill:url(#SVGID_69_);}
	.st22{clip-path:url(#SVGID_70_);fill:url(#SVGID_71_);}
	.st23{clip-path:url(#SVGID_72_);fill:url(#SVGID_73_);}
	.st24{clip-path:url(#SVGID_74_);fill:url(#SVGID_75_);}
	.st25{clip-path:url(#SVGID_76_);fill:url(#SVGID_77_);}
</style>
<g>
	<g>
		<defs>
			<rect id="SVGID_27_" x="-3500" y="1042" width="1080" height="1080"/>
		</defs>
		<clipPath id="SVGID_1_">
			<use xlink:href="#SVGID_27_"  style="overflow:visible;"/>
		</clipPath>
		<g class="st0">
			<text transform="matrix(1.099 0 0 1 -3100.7031 1695.0742)"><tspan x="0" y="0" style="font-family:'AdobeArabic-Regular'; font-size:34.0227px;">ن</tspan><tspan x="15.35" y="0" style="font-family:'AdobeArabic-Regular'; font-size:34.0227px;">ﺎﻜـــﺳ</tspan><tspan x="69.05" y="0" style="font-family:'AdobeArabic-Regular'; font-size:34.0227px;">ﻻ</tspan><tspan x="83.11" y="0" style="font-family:'AdobeArabic-Regular'; font-size:34.0227px; letter-spacing:6.37;">ا</tspan><tspan x="94.92" y="0" style="font-family:'ExpoArabic-Book'; font-size:34.0227px;"> </tspan><tspan x="102.68" y="0" style="font-family:'AdobeArabic-Regular'; font-size:34.0227px;">ﺐـــﺘﻜﻣ</tspan></text>
		</g>
		<g class="st0">
			<text transform="matrix(1.099 0 0 1 -3103.0962 1735.4932)"><tspan x="0" y="0" style="font-family:'AdobeArabic-Regular'; font-size:34.0227px;">ﺔ</tspan><tspan x="11.61" y="0" style="font-family:'AdobeArabic-Regular'; font-size:34.0227px;">ﺷ</tspan><tspan x="27.19" y="0" style="font-family:'AdobeArabic-Regular'; font-size:34.0227px;">ﺎﻋ</tspan><tspan x="45.32" y="0" style="font-family:'AdobeArabic-Regular'; font-size:34.0227px;">ﻻا</tspan><tspan x="65.19" y="0" style="font-family:'AdobeArabic-Regular'; font-size:34.0227px; letter-spacing:1.82;">و</tspan><tspan x="79.54" y="0" style="font-family:'ExpoArabic-Book'; font-size:34.0227px;"> </tspan><tspan x="87.3" y="0" style="font-family:'AdobeArabic-Regular'; font-size:34.0227px;">ﻲﺑ</tspan><tspan x="111.39" y="0" style="font-family:'AdobeArabic-Regular'; font-size:34.0227px;">ﻼ</tspan><tspan x="126.04" y="0" style="font-family:'AdobeArabic-Regular'; font-size:34.0227px;">ﻄ</tspan><tspan x="141.65" y="0" style="font-family:'AdobeArabic-Regular'; font-size:34.0227px;">ﻟ</tspan><tspan x="148.58" y="0" style="font-family:'AdobeArabic-Regular'; font-size:34.0227px;">ا</tspan></text>
		</g>
		<g class="st0">
			<defs>
				<path id="SVGID_52_" d="M-2927.5,1482.41v0.05c0.53-0.32,1.16-0.58,1.69-0.95C-2926.44,1481.77-2926.92,1482.09-2927.5,1482.41"
					/>
			</defs>
			<clipPath id="SVGID_2_">
				<use xlink:href="#SVGID_52_"  style="overflow:visible;"/>
			</clipPath>
			
				<radialGradient id="SVGID_3_" cx="-252.1304" cy="3188.6689" r="1" gradientTransform="matrix(0.1508 -3.0864 -3.0864 -0.1508 6951.2251 1185.4247)" gradientUnits="userSpaceOnUse">
				<stop  offset="0" style="stop-color:#EAC867"/>
				<stop  offset="0.2452" style="stop-color:#BF913F"/>
				<stop  offset="0.5503" style="stop-color:#DBB457"/>
				<stop  offset="0.7346" style="stop-color:#C59844"/>
				<stop  offset="1" style="stop-color:#D6AD53"/>
			</radialGradient>
			<polygon class="st1" points="-2927.54,1482.46 -2927.49,1481.43 -2925.76,1481.51 -2925.81,1482.55 			"/>
		</g>
		<g class="st0">
			<defs>
				<path id="SVGID_51_" d="M-2925.38,1477.33c0.42,0.21,0.79,0.42,1.22,0.69c0.8,0.42,1.54,0.9,2.38,1.32
					c-0.79-0.42-1.48-0.9-2.28-1.32c-0.42-0.27-0.9-0.48-1.32-0.74V1477.33z"/>
			</defs>
			<clipPath id="SVGID_4_">
				<use xlink:href="#SVGID_51_"  style="overflow:visible;"/>
			</clipPath>
			
				<radialGradient id="SVGID_5_" cx="-224.5307" cy="2623.9358" r="1" gradientTransform="matrix(0.3205 -6.5589 -6.5589 -0.3205 14355.1299 848.1089)" gradientUnits="userSpaceOnUse">
				<stop  offset="0" style="stop-color:#EAC867"/>
				<stop  offset="0.2452" style="stop-color:#BF913F"/>
				<stop  offset="0.5503" style="stop-color:#DBB457"/>
				<stop  offset="0.7346" style="stop-color:#C59844"/>
				<stop  offset="1" style="stop-color:#D6AD53"/>
			</radialGradient>
			<polygon class="st2" points="-2925.48,1479.34 -2925.37,1477.1 -2921.68,1477.28 -2921.79,1479.52 			"/>
		</g>
		<g class="st0">
			<defs>
				<path id="SVGID_50_" d="M-2917.55,1491.56v0.11c0.11-0.11,0.21-0.16,0.37-0.27
					C-2917.28,1491.46-2917.39,1491.51-2917.55,1491.56"/>
			</defs>
			<clipPath id="SVGID_6_">
				<use xlink:href="#SVGID_50_"  style="overflow:visible;"/>
			</clipPath>
			
				<radialGradient id="SVGID_7_" cx="-437.9767" cy="6991.3647" r="1" gradientTransform="matrix(0.033 -0.6761 -0.6761 -0.033 1823.569 1426.6128)" gradientUnits="userSpaceOnUse">
				<stop  offset="0" style="stop-color:#EAC867"/>
				<stop  offset="0.2452" style="stop-color:#BF913F"/>
				<stop  offset="0.5503" style="stop-color:#DBB457"/>
				<stop  offset="0.7346" style="stop-color:#C59844"/>
				<stop  offset="1" style="stop-color:#D6AD53"/>
			</radialGradient>
			<polygon class="st3" points="-2917.56,1491.67 -2917.55,1491.39 -2917.16,1491.41 -2917.18,1491.69 			"/>
		</g>
		<g class="st0">
			<defs>
				<path id="SVGID_49_" d="M-2916.65,1491.2c0,0,0.03,0,0.06-0.02C-2916.6,1491.18-2916.63,1491.19-2916.65,1491.2
					 M-2916.54,1491.14c-0.01,0.01-0.03,0.02-0.04,0.03c0.04-0.01,0.08-0.03,0.12-0.04
					C-2916.49,1491.14-2916.52,1491.14-2916.54,1491.14 M-2916.47,1491.14c0.12-0.01,0.22-0.05,0.35-0.05
					C-2916.25,1491.09-2916.36,1491.11-2916.47,1491.14"/>
			</defs>
			<clipPath id="SVGID_8_">
				<use xlink:href="#SVGID_49_"  style="overflow:visible;"/>
			</clipPath>
			
				<radialGradient id="SVGID_9_" cx="-367.0742" cy="5540.5933" r="1" gradientTransform="matrix(0.0471 -0.963 -0.963 -0.0471 2436.0442 1398.4817)" gradientUnits="userSpaceOnUse">
				<stop  offset="0" style="stop-color:#EAC867"/>
				<stop  offset="0.2452" style="stop-color:#BF913F"/>
				<stop  offset="0.5503" style="stop-color:#DBB457"/>
				<stop  offset="0.7346" style="stop-color:#C59844"/>
				<stop  offset="1" style="stop-color:#D6AD53"/>
			</radialGradient>
			<polygon class="st4" points="-2916.65,1491.19 -2916.65,1491.06 -2916.11,1491.09 -2916.12,1491.22 			"/>
		</g>
		<g class="st0">
			<defs>
				<path id="SVGID_48_" d="M-2878.97,1416.04c-1.91,2.54-3.81,5.08-5.77,7.67c-2.86,3.65-5.66,7.3-8.42,11.06
					c-2.01,2.59-4.08,5.24-5.98,7.94c-1.54,1.8-2.91,3.7-4.34,5.66c-1.38,1.8-2.86,3.55-4.13,5.4c-1.48,1.96-2.91,3.86-4.39,5.82
					c-1.38,1.69-2.75,3.39-3.97,5.24c-0.64,0.74-1.22,1.53-1.85,2.33c0.42,0.27,0.85,0.48,1.27,0.74c0.11,0.05,0.21,0.16,0.37,0.21
					c2.86,1.75,5.98,3.18,8.84,4.97c0.16,0.05,0.32,0.16,0.48,0.26c0.64,0.37,1.22,0.79,1.8,1.27c0.48,0.21,0.95,0.48,1.38,0.79
					c0.64,0.16,0.74,0.63,0.74,1.06v14.29c1.85-1.01,3.76-2.06,5.61-3.12c1.85-1,3.76-1.96,5.56-3.12c2.12-1.01,4.13-2.17,6.14-3.39
					c2.06-1.06,4.13-2.12,6.09-3.39c2.12-0.95,4.13-2.17,6.19-3.39c0.21-0.11,0.48-0.21,0.74-0.37c2.54-1.38,5.13-2.81,7.68-4.23
					c4.13-2.22,8.2-4.45,12.28-6.77c3.33-1.85,6.67-3.65,10-5.5c0.58-0.32,0.21-0.64,0.05-0.95c-2.17-4.13-4.66-8.04-7.41-11.85
					c-5.82-8.05-12.6-15.24-20.06-21.86c-2.59-2.33-5.29-4.55-8.04-6.72c-0.16-0.13-0.31-0.3-0.48-0.3
					C-2878.7,1415.79-2878.82,1415.86-2878.97,1416.04"/>
			</defs>
			<clipPath id="SVGID_10_">
				<use xlink:href="#SVGID_48_"  style="overflow:visible;"/>
			</clipPath>
			
				<radialGradient id="SVGID_11_" cx="-201.1646" cy="2145.8291" r="1" gradientTransform="matrix(6.752 -138.1555 -138.1555 -6.752 294866.3125 -11800.1602)" gradientUnits="userSpaceOnUse">
				<stop  offset="0" style="stop-color:#EAC867"/>
				<stop  offset="0.2452" style="stop-color:#BF913F"/>
				<stop  offset="0.5503" style="stop-color:#DBB457"/>
				<stop  offset="0.7346" style="stop-color:#C59844"/>
				<stop  offset="1" style="stop-color:#D6AD53"/>
			</radialGradient>
			<polygon class="st5" points="-2921.47,1490.59 -2917.63,1412.1 -2838.42,1415.97 -2842.26,1494.46 			"/>
		</g>
		<g class="st0">
			<defs>
				<path id="SVGID_47_" d="M-2957.72,1459.49c3.86,2.12,7.67,4.23,11.59,6.4c0.05,0,0.05,0.05,0.11,0.05h0.1
					c-0.05,0-0.1-0.05-0.1-0.05c-3.92-2.12-7.78-4.29-11.59-6.4c-0.21-0.16-0.42-0.21-0.58-0.26
					C-2958.03,1459.33-2957.88,1459.39-2957.72,1459.49"/>
			</defs>
			<clipPath id="SVGID_12_">
				<use xlink:href="#SVGID_47_"  style="overflow:visible;"/>
			</clipPath>
			
				<radialGradient id="SVGID_13_" cx="-208.6933" cy="2299.8782" r="1" gradientTransform="matrix(0.9045 -18.5078 -18.5078 -0.9045 39802.2578 -312.3322)" gradientUnits="userSpaceOnUse">
				<stop  offset="0" style="stop-color:#EAC867"/>
				<stop  offset="0.2452" style="stop-color:#BF913F"/>
				<stop  offset="0.5503" style="stop-color:#DBB457"/>
				<stop  offset="0.7346" style="stop-color:#C59844"/>
				<stop  offset="1" style="stop-color:#D6AD53"/>
			</radialGradient>
			<polygon class="st6" points="-2958.52,1465.93 -2958.16,1458.63 -2945.59,1459.24 -2945.94,1466.55 			"/>
		</g>
		<g class="st0">
			<defs>
				<path id="SVGID_46_" d="M-2967.19,1388.84c-7.36,0.27-14.66,1.22-21.86,2.81c-3.12,0.69-6.25,1.43-9.31,2.49
					c-2.22,0.58-4.34,1.43-6.51,2.17c-0.42,0.16-0.37,0.32-0.26,0.64c0.37,1,0.74,2.01,1.06,3.02c0.85,2.33,1.64,4.66,2.49,6.98
					c0.64,1.85,1.27,3.71,1.96,5.56c0.53,1.59,1.01,3.23,1.69,4.76c0.95,2.86,1.91,5.71,3.02,8.52c0,0.64,0.32,1.11,0.53,1.69
					c0.85,2.49,1.8,4.97,2.7,7.46c0.53,1.85,1.16,3.65,1.91,5.45c0.74,2.33,1.53,4.66,2.49,6.99c0.42,1.53,1.01,3.02,1.59,4.55
					c0.69,1.8,1.32,3.6,2.01,5.45c0.48-0.32,0.95-0.58,1.48-0.9c2.7-1.48,5.45-3.02,8.15-4.55c0.16-0.11,0.32-0.21,0.53-0.27
					c2.43-1.43,4.92-2.8,7.36-4.23c0.16-0.05,0.32-0.16,0.42-0.26h0.05c0.79-0.48,1.59-0.95,2.44-1.38c1.48-0.9,2.75-1.17,4.02-1.06
					c1.22-0.11,2.49,0.16,4.02,1.06c0.79,0.42,1.59,0.9,2.38,1.38c0.16,0.11,0.32,0.21,0.48,0.26c2.49,1.43,4.98,2.8,7.41,4.23
					c0.16,0.05,0.32,0.16,0.53,0.27c1.8,1,3.65,2.06,5.45,3.07c0.32-1.06,0.63-2.17,0.95-3.23c0.48-1.32,0.9-2.7,1.22-4.08
					c1.01-2.38,1.64-4.87,2.33-7.3c0.05-0.21,0.16-0.42,0.21-0.64c0.48-1.53,0.9-3.07,1.38-4.6c1.06-3.07,2.01-6.24,2.86-9.37
					c1.01-2.86,1.85-5.77,2.7-8.68c0.37-1.59,1.06-3.02,1.38-4.6c0.69-1.85,1.22-3.7,1.75-5.61c0.8-2.28,1.48-4.6,2.12-6.93
					c0.37-1.11,0.74-2.17,1.06-3.23c0.69-2.22,0.69-2.22-1.69-2.54c-0.26-0.11-0.53-0.21-0.79-0.32c-8.26-2.12-16.56-3.7-25.03-4.5
					c-4.45-0.42-8.88-0.64-13.3-0.64C-2963.64,1388.73-2965.41,1388.76-2967.19,1388.84"/>
			</defs>
			<clipPath id="SVGID_14_">
				<use xlink:href="#SVGID_46_"  style="overflow:visible;"/>
			</clipPath>
			
				<radialGradient id="SVGID_15_" cx="-201.0937" cy="2144.3796" r="1" gradientTransform="matrix(7.1893 -147.1041 -147.1041 -7.1893 313928.8125 -12667.9785)" gradientUnits="userSpaceOnUse">
				<stop  offset="0" style="stop-color:#EAC867"/>
				<stop  offset="0.2452" style="stop-color:#BF913F"/>
				<stop  offset="0.5503" style="stop-color:#DBB457"/>
				<stop  offset="0.7346" style="stop-color:#C59844"/>
				<stop  offset="1" style="stop-color:#D6AD53"/>
			</radialGradient>
			<polygon class="st7" points="-3008.64,1457.21 -3005.09,1384.58 -2917,1388.89 -2920.55,1461.52 			"/>
		</g>
		<g class="st0">
			<defs>
				<path id="SVGID_45_" d="M-2847.9,1483.42c-1.38,0.48-2.75,0.95-4.13,1.48c-2.33,0.64-4.55,1.54-6.83,2.28
					c-2.54,0.9-5.08,1.8-7.62,2.65c-2.38,0.74-4.82,1.54-7.14,2.49c-0.05,0-0.11,0-0.16,0.05c-2.75,0.85-5.45,1.8-8.15,2.75
					c-3.55,1.22-7.04,2.43-10.58,3.65c-2.59,0.9-5.19,1.75-7.78,2.65c-0.9,0.32-1.8,0.58-2.65,0.9v6.83
					c1.53-0.32,3.02-0.69,4.55-1.11c2.65-0.48,5.29-1.11,7.94-1.75c0.74-0.16,1.43-0.32,2.17-0.48l8.73-2.06
					c0.58-0.11,1.16-0.21,1.69-0.32c2.38-0.58,4.82-1.01,7.15-1.69c2.49-0.48,5.03-1.06,7.46-1.69c2.54-0.48,5.03-1.06,7.46-1.69
					c2.43-0.42,4.76-1.06,7.15-1.59c0.85-0.21,1.75-0.37,2.59-0.58c0.79-0.21,1.85-0.11,2.38-0.69c0.53-0.64,0.48-1.64,0.58-2.49
					c0.21-2.38,0.42-4.76-1.43-6.72c-0.79-0.9-1.64-1.8-2.59-2.59c-0.16-0.16-0.32-0.32-0.55-0.32
					C-2847.73,1483.36-2847.81,1483.38-2847.9,1483.42"/>
			</defs>
			<clipPath id="SVGID_16_">
				<use xlink:href="#SVGID_45_"  style="overflow:visible;"/>
			</clipPath>
			
				<radialGradient id="SVGID_17_" cx="-201.2832" cy="2148.2568" r="1" gradientTransform="matrix(6.1277 -125.3827 -125.3827 -6.1277 267647.1875 -10564.8291)" gradientUnits="userSpaceOnUse">
				<stop  offset="0" style="stop-color:#EAC867"/>
				<stop  offset="0.2452" style="stop-color:#BF913F"/>
				<stop  offset="0.5503" style="stop-color:#DBB457"/>
				<stop  offset="0.7346" style="stop-color:#C59844"/>
				<stop  offset="1" style="stop-color:#D6AD53"/>
			</radialGradient>
			<polygon class="st8" points="-2904.2,1509.08 -2902.8,1480.42 -2841.4,1483.42 -2842.8,1512.08 			"/>
		</g>
		<g class="st0">
			<defs>
				<path id="SVGID_44_" d="M-3042.19,1416.36c-5.82,4.6-11.33,9.53-16.46,14.87c-5.56,5.77-10.53,11.91-14.82,18.63
					c-1.48,2.33-2.81,4.76-4.23,7.14v0.21c2.01,1.06,3.97,2.17,5.93,3.23c2.38,1.32,4.76,2.65,7.15,3.92
					c1.91,1.06,3.76,2.12,5.66,3.12c1.96,1.22,3.97,2.28,6.03,3.33c2.28,1.27,4.55,2.54,6.88,3.81c0.42,0.27,0.85,0.53,1.32,0.74
					c3.39,1.91,6.77,3.76,10.21,5.61c0.95,0.53,1.85,1.11,2.86,1.64c3.76,2.07,7.57,4.13,11.38,6.24c0.95,0.53,1.91,1.06,2.86,1.64
					c0.64,0.32,1.22,0.64,1.85,1.01v-1.01c-0.05-1.64-0.05-3.28-0.05-4.92v-9.1c0-0.48,0.1-0.9,0.74-1.06
					c0.48-0.32,0.95-0.58,1.38-0.79c3.49-2.65,7.52-4.29,11.17-6.51c0.21-0.11,0.42-0.26,0.64-0.37c-0.1-0.16-0.26-0.32-0.37-0.48
					v-0.05c-0.9-1.22-1.8-2.43-2.75-3.65c-2.28-3.02-4.6-5.98-6.88-9c-2.65-3.6-5.34-7.15-8.1-10.64c-1.53-2.01-3.12-4.08-4.66-6.14
					c-0.16-0.21-0.37-0.42-0.53-0.64c-1.22-1.59-2.28-3.28-3.6-4.76c-1.38-1.91-2.75-3.81-4.23-5.56c-0.27-0.37-0.48-0.74-0.74-1.06
					c-1.32-1.75-2.7-3.55-4.07-5.29c-0.95-1.32-1.96-2.65-2.91-3.92c-0.43-0.55-0.55-0.83-0.75-0.83
					C-3041.46,1415.75-3041.68,1415.95-3042.19,1416.36"/>
			</defs>
			<clipPath id="SVGID_18_">
				<use xlink:href="#SVGID_44_"  style="overflow:visible;"/>
			</clipPath>
			
				<radialGradient id="SVGID_19_" cx="-201.2557" cy="2147.6929" r="1" gradientTransform="matrix(6.2622 -128.1348 -128.1348 -6.2622 273468.5938 -10838.792)" gradientUnits="userSpaceOnUse">
				<stop  offset="0" style="stop-color:#EAC867"/>
				<stop  offset="0.2452" style="stop-color:#BF913F"/>
				<stop  offset="0.5503" style="stop-color:#DBB457"/>
				<stop  offset="0.7346" style="stop-color:#C59844"/>
				<stop  offset="1" style="stop-color:#D6AD53"/>
			</radialGradient>
			<polygon class="st9" points="-3081.39,1491.33 -3077.52,1412.04 -2998,1415.93 -3001.88,1495.22 			"/>
		</g>
		<g class="st0">
			<defs>
				<path id="SVGID_43_" d="M-2996.88,1493.9c0.05,0.05,0.11,0.1,0.21,0.1c2.33,1.27,4.66,2.54,7.04,3.81
					c-2.33-1.27-4.6-2.54-6.93-3.81c-0.11,0-0.16-0.05-0.21-0.1c-1.27-0.69-2.49-1.32-3.76-2.01
					C-2999.32,1492.57-2998.15,1493.21-2996.88,1493.9"/>
			</defs>
			<clipPath id="SVGID_20_">
				<use xlink:href="#SVGID_43_"  style="overflow:visible;"/>
			</clipPath>
			
				<radialGradient id="SVGID_21_" cx="-209.4909" cy="2316.1978" r="1" gradientTransform="matrix(0.8285 -16.9525 -16.9525 -0.8285 36451.5156 -133.957)" gradientUnits="userSpaceOnUse">
				<stop  offset="0" style="stop-color:#EAC867"/>
				<stop  offset="0.2452" style="stop-color:#BF913F"/>
				<stop  offset="0.5503" style="stop-color:#DBB457"/>
				<stop  offset="0.7346" style="stop-color:#C59844"/>
				<stop  offset="1" style="stop-color:#D6AD53"/>
			</radialGradient>
			<polygon class="st10" points="-3000.82,1497.8 -3000.51,1491.35 -2989.34,1491.9 -2989.66,1498.34 			"/>
		</g>
		<g class="st0">
			<defs>
				<path id="SVGID_42_" d="M-2983.92,1500.83v-0.05c-0.48-0.27-0.9-0.48-1.38-0.69
					C-2984.81,1500.35-2984.39,1500.62-2983.92,1500.83"/>
			</defs>
			<clipPath id="SVGID_22_">
				<use xlink:href="#SVGID_42_"  style="overflow:visible;"/>
			</clipPath>
			
				<radialGradient id="SVGID_23_" cx="-275.2472" cy="3661.6733" r="1" gradientTransform="matrix(0.1045 -2.1382 -2.1382 -0.1045 4874.5415 1295.0131)" gradientUnits="userSpaceOnUse">
				<stop  offset="0" style="stop-color:#EAC867"/>
				<stop  offset="0.2452" style="stop-color:#BF913F"/>
				<stop  offset="0.5503" style="stop-color:#DBB457"/>
				<stop  offset="0.7346" style="stop-color:#C59844"/>
				<stop  offset="1" style="stop-color:#D6AD53"/>
			</radialGradient>
			<polygon class="st11" points="-2985.33,1500.83 -2985.29,1500.02 -2983.88,1500.09 -2983.92,1500.89 			"/>
		</g>
		<g class="st0">
			<defs>
				<path id="SVGID_41_" d="M-3015.88,1414.4c-1.48,0.27-3.02,0.64-4.13,1.85c-1.01,1.17-1.96,2.33-2.86,3.6
					c-0.16,0.26-0.21,0.48-0.05,0.74c0.79,1.22,1.54,2.44,2.33,3.65c1.32,2.38,2.75,4.66,4.23,6.99c1.43,2.28,2.8,4.6,4.23,6.93
					c1.38,2.22,2.75,4.44,4.08,6.61c1.59,2.75,3.23,5.4,4.92,7.99c1.64,2.86,3.33,5.61,5.08,8.36c0.64,1.11,1.32,2.17,2.01,3.28
					c0.42-0.27,0.9-0.53,1.32-0.79l4.97-2.86c-0.48-1.01-0.95-2.06-1.43-3.07c-1.38-3.02-2.75-6.03-4.29-9
					c0.05-0.27-0.1-0.42-0.21-0.64c-1.27-2.59-2.49-5.24-3.76-7.83c-1.11-2.33-2.22-4.66-3.33-7.04c-1.01-2.38-2.17-4.76-3.33-7.09
					c-0.58-1.22-1.16-2.43-1.69-3.7c-0.53-1.27-1.38-2.44-1.8-3.76c-0.58-1.22-1.11-2.44-1.69-3.6c-0.16-0.42-0.42-0.64-0.85-0.69
					c-0.59-0.07-1.17-0.11-1.74-0.11C-3014.53,1414.23-3015.2,1414.29-3015.88,1414.4"/>
			</defs>
			<clipPath id="SVGID_24_">
				<use xlink:href="#SVGID_41_"  style="overflow:visible;"/>
			</clipPath>
			
				<radialGradient id="SVGID_25_" cx="-201.2276" cy="2147.1182" r="1" gradientTransform="matrix(6.4055 -131.0657 -131.0657 -6.4055 279730.5 -11126.0234)" gradientUnits="userSpaceOnUse">
				<stop  offset="0" style="stop-color:#EAC867"/>
				<stop  offset="0.2452" style="stop-color:#BF913F"/>
				<stop  offset="0.5503" style="stop-color:#DBB457"/>
				<stop  offset="0.7346" style="stop-color:#C59844"/>
				<stop  offset="1" style="stop-color:#D6AD53"/>
			</radialGradient>
			<polygon class="st12" points="-3025.53,1464.3 -3023,1412.61 -2987.29,1414.35 -2989.82,1466.04 			"/>
		</g>
		<g class="st0">
			<defs>
				<path id="SVGID_40_" d="M-2935.44,1471.77c0.48,0.26,0.9,0.53,1.38,0.79c1.32,0.69,2.65,1.43,3.97,2.17v-0.05
					c-1.27-0.74-2.59-1.43-3.86-2.12c-0.48-0.26-0.9-0.53-1.43-0.85L-2935.44,1471.77z"/>
			</defs>
			<clipPath id="SVGID_26_">
				<use xlink:href="#SVGID_40_"  style="overflow:visible;"/>
			</clipPath>
			
				<radialGradient id="SVGID_53_" cx="-208.2998" cy="2291.8259" r="1" gradientTransform="matrix(0.9474 -19.3854 -19.3854 -0.9474 41685.8906 -390.194)" gradientUnits="userSpaceOnUse">
				<stop  offset="0" style="stop-color:#EAC867"/>
				<stop  offset="0.2452" style="stop-color:#BF913F"/>
				<stop  offset="0.5503" style="stop-color:#DBB457"/>
				<stop  offset="0.7346" style="stop-color:#C59844"/>
				<stop  offset="1" style="stop-color:#D6AD53"/>
			</radialGradient>
			<polygon class="st13" points="-2935.58,1474.73 -2935.42,1471.46 -2929.94,1471.73 -2930.1,1475 			"/>
		</g>
		<g class="st0">
			<defs>
				<path id="SVGID_39_" d="M-2907.7,1414.4c-0.48,0.05-0.79,0.21-0.95,0.69c-0.32,0.74-0.69,1.43-1.01,2.17
					c-0.85,1.8-1.69,3.6-2.54,5.45c-0.95,1.8-1.8,3.71-2.65,5.61c-1.22,2.43-2.43,4.87-3.49,7.41c-1.75,3.55-3.44,7.09-5.08,10.74
					c-1.54,3.02-2.96,6.09-4.34,9.21c-0.74,1.48-1.43,2.96-2.12,4.45c0.48,0.27,0.95,0.53,1.43,0.85c1.69,0.95,3.33,1.85,4.98,2.81
					c0.9-1.48,1.8-2.91,2.65-4.34c0.26-0.37,0.48-0.74,0.74-1.06c1.48-2.54,3.07-4.92,4.5-7.46c2.12-3.39,4.23-6.77,6.24-10.21
					c1.43-2.38,2.91-4.76,4.34-7.09c1.06-1.75,2.12-3.44,3.18-5.13c0.05-0.16,0.11-0.32,0.21-0.42c1-1.54,2.01-3.07,2.86-4.66
					c0.21-0.32,0.48-0.64,0.64-1c1.38-2.17,1.32-2.17-0.16-4.23c-1.48-1.96-3.18-3.49-5.77-3.76c-0.61-0.05-1.22-0.08-1.82-0.08
					C-2906.48,1414.32-2907.09,1414.35-2907.7,1414.4"/>
			</defs>
			<clipPath id="SVGID_54_">
				<use xlink:href="#SVGID_39_"  style="overflow:visible;"/>
			</clipPath>
			
				<radialGradient id="SVGID_55_" cx="-201.2301" cy="2147.1699" r="1" gradientTransform="matrix(6.3923 -130.7969 -130.7969 -6.3923 279175.6563 -11102.3799)" gradientUnits="userSpaceOnUse">
				<stop  offset="0" style="stop-color:#EAC867"/>
				<stop  offset="0.2452" style="stop-color:#BF913F"/>
				<stop  offset="0.5503" style="stop-color:#DBB457"/>
				<stop  offset="0.7346" style="stop-color:#C59844"/>
				<stop  offset="1" style="stop-color:#D6AD53"/>
			</radialGradient>
			<polygon class="st14" points="-2932.29,1463.66 -2929.8,1412.71 -2894.34,1414.44 -2896.83,1465.4 			"/>
		</g>
		<g class="st0">
			<defs>
				<path id="SVGID_38_" d="M-3072.88,1483.68c-0.64,0.64-1.32,1.22-1.96,1.85c-1,1.16-1.96,2.33-2.06,3.97
					c-0.21,1.91,0.11,3.76,0.48,5.66c0.05,0.37,0.32,0.48,0.64,0.53c1.38,0.26,2.7,0.58,4.07,0.9c2.33,0.58,4.71,1.11,7.09,1.59
					c1.91,0.53,3.86,0.95,5.82,1.32c2.59,0.69,5.29,1.27,7.94,1.85c0.64,0.11,1.27,0.32,1.91,0.42c2.7,0.64,5.45,1.22,8.15,1.8
					c1.01,0.27,2.01,0.53,3.02,0.74c2.7,0.64,5.34,1.22,8.04,1.8c4.07,1.06,8.26,1.91,12.39,2.86c0.58,0.16,1.22,0.26,1.8,0.42
					v-6.61c-0.05-0.05-0.05-0.05-0.1-0.05c-3.97-1.32-7.94-2.7-11.91-4.08c-3.54-1.22-7.14-2.43-10.69-3.7
					c-0.16-0.05-0.32-0.11-0.48-0.16c-3.07-1.01-6.14-2.06-9.21-3.12c-2.59-0.95-5.19-1.85-7.83-2.7c-0.16-0.05-0.32-0.05-0.53-0.16
					c-1.64-0.63-3.33-1.32-5.08-1.69c-2.22-0.9-4.45-1.69-6.77-2.38c-1.22-0.42-2.38-0.85-3.6-1.32c-0.15-0.06-0.28-0.08-0.41-0.08
					C-3072.42,1483.33-3072.64,1483.44-3072.88,1483.68"/>
			</defs>
			<clipPath id="SVGID_56_">
				<use xlink:href="#SVGID_38_"  style="overflow:visible;"/>
			</clipPath>
			
				<radialGradient id="SVGID_57_" cx="-201.2164" cy="2146.8901" r="1" gradientTransform="matrix(6.4642 -132.2673 -132.2673 -6.4642 282282.9063 -11227.5137)" gradientUnits="userSpaceOnUse">
				<stop  offset="0" style="stop-color:#EAC867"/>
				<stop  offset="0.2452" style="stop-color:#BF913F"/>
				<stop  offset="0.5503" style="stop-color:#DBB457"/>
				<stop  offset="0.7346" style="stop-color:#C59844"/>
				<stop  offset="1" style="stop-color:#D6AD53"/>
			</radialGradient>
			<polygon class="st15" points="-3078.39,1509.34 -3076.97,1480.33 -3014.29,1483.39 -3015.71,1512.4 			"/>
		</g>
		<g class="st0">
			<defs>
				<path id="SVGID_37_" d="M-2981,1544.02v10.9l8.31,5.29v-10.85L-2981,1544.02z M-2995.88,1531.63v10.85l8.31,5.29l0.05,0.05
					v-10.95L-2995.88,1531.63z M-2983.92,1500.83c0.42,0.27,0.9,0.53,1.38,0.74c4.34,2.33,8.68,4.6,13.07,6.83
					c2.7,1.32,3.33,2.91,3.33,5.66c-0.11,15.35,0,30.75,0.05,46.2v5.61c0,0.48,0.05,1.01,0.05,1.48c-0.05,0.69-0.05,1.38-0.05,2.06
					v9c0.05,0,0.05,0.05,0.11,0.05v-18.21c-0.05-15.45-0.16-30.85-0.11-46.2c0-2.75-0.63-4.34-3.28-5.66
					c-4.39-2.22-8.73-4.5-13.07-6.83c-0.48-0.27-1.01-0.53-1.48-0.79c-0.48-0.27-0.9-0.48-1.38-0.69
					C-2984.81,1500.35-2984.39,1500.62-2983.92,1500.83 M-2958.09,1498.66c0.64-0.1,1.22-0.37,1.91-0.79
					C-2956.87,1498.29-2957.45,1498.5-2958.09,1498.66 M-2996.88,1493.9c0.05,0.05,0.11,0.1,0.21,0.1c2.33,1.27,4.66,2.54,7.04,3.81
					c-2.33-1.27-4.6-2.54-6.93-3.81c-0.11,0-0.16-0.05-0.21-0.1c-1.27-0.69-2.49-1.32-3.76-2.01
					C-2999.32,1492.57-2998.15,1493.21-2996.88,1493.9 M-2946.07,1492.36c-1.69,0.9-3.39,1.75-5.03,2.7c1.69-0.9,3.44-1.8,5.13-2.7
					c1.48-0.79,2.96-1.59,4.5-2.43C-2943,1490.72-2944.54,1491.51-2946.07,1492.36 M-2927.5,1482.41c-1.59,0.85-3.12,1.69-4.71,2.54
					c1.53-0.79,3.12-1.64,4.71-2.49c0.53-0.32,1.16-0.58,1.69-0.95C-2926.44,1481.77-2926.92,1482.09-2927.5,1482.41
					 M-2935.44,1471.77c0.48,0.26,0.9,0.53,1.38,0.79c1.32,0.69,2.65,1.43,3.97,2.17l1.27,0.69c1.11,0.63,2.28,1.27,3.39,1.9h0.05
					c0.42,0.21,0.79,0.42,1.22,0.69c0.8,0.42,1.54,0.9,2.38,1.32c-0.79-0.42-1.48-0.9-2.28-1.32c-0.42-0.27-0.9-0.48-1.32-0.74
					c-1.11-0.64-2.22-1.22-3.33-1.85c-0.48-0.27-0.9-0.48-1.38-0.74c-1.27-0.74-2.59-1.43-3.86-2.12c-0.48-0.26-0.9-0.53-1.43-0.85
					h-0.05c-3.49-1.91-6.99-3.86-10.48-5.77C-2942.47,1467.91-2938.98,1469.87-2935.44,1471.77 M-2957.72,1459.49
					c3.86,2.12,7.67,4.23,11.59,6.4c0.05,0,0.05,0.05,0.11,0.05h0.1c-0.05,0-0.1-0.05-0.1-0.05c-3.92-2.12-7.78-4.29-11.59-6.4
					c-0.21-0.16-0.42-0.21-0.58-0.26C-2958.03,1459.33-2957.88,1459.39-2957.72,1459.49"/>
			</defs>
			<clipPath id="SVGID_58_">
				<use xlink:href="#SVGID_37_"  style="overflow:visible;"/>
			</clipPath>
			
				<linearGradient id="SVGID_59_" gradientUnits="userSpaceOnUse" x1="-221.9604" y1="2120.1335" x2="-220.9604" y2="2120.1335" gradientTransform="matrix(149.1923 12.6844 12.6844 -149.1923 3228.3206 320639.0313)">
				<stop  offset="0" style="stop-color:#EAC867"/>
				<stop  offset="0.2452" style="stop-color:#BF913F"/>
				<stop  offset="0.5503" style="stop-color:#DBB457"/>
				<stop  offset="0.7346" style="stop-color:#C59844"/>
				<stop  offset="1" style="stop-color:#D6AD53"/>
			</linearGradient>
			<polygon class="st16" points="-2999.97,1452.58 -2911.72,1460.08 -2922.35,1585.12 -3010.6,1577.61 			"/>
		</g>
		<g class="st0">
			<defs>
				<path id="SVGID_36_" d="M-2955.65,1622.34c-2.22,3.65-4.07,6.78-5.4,9c0,0,0,0.05-0.05,0.05v-0.05c-1.32-2.22-3.18-5.35-5.45-9
					c-39.27-63.19-120.03-83.36-119.98-82.62c0.05,0.74-0.05,16.51,0,18.05c0.26,5.56,0.21,8.2,0.21,8.2c0,0.26-0.05,1.16,0,2.44
					c0,0.42,0,0.85,0.05,2.22c0.32-0.05,0.95,0.1,1.48,0.21c3.86,0.69,7.73,1.59,11.48,2.59c16.72,3.18,31.65,6.78,45.2,12.6
					c13.6,5.82,25.88,13.81,37.42,25.83c8.68,8.26,16.46,18.58,24.13,28.1c1.38,1.64,2.38,2.91,3.18,3.7
					c0.74,0.21,1.48,0.32,2.28,0.32h0.05c0.79,0,1.53-0.1,2.28-0.32c0.79-0.79,1.8-2.06,3.12-3.7c7.73-9.53,15.51-19.85,24.19-28.1
					c11.54-12.01,23.82-20.01,37.36-25.83c13.6-5.82,28.47-9.42,45.25-12.6c3.76-1,7.62-1.91,11.49-2.59
					c0.53-0.11,1.17-0.26,1.48-0.21c0.05-1.38,0.05-1.8,0.05-2.22c0.05-1.27,0-2.17,0-2.44c0,0-0.05-2.65,0.21-8.2
					c0.05-1.54-0.05-17.31,0-18.05c0-0.01-0.02-0.02-0.07-0.02C-2838.44,1539.71-2917.02,1560.26-2955.65,1622.34"/>
			</defs>
			<clipPath id="SVGID_60_">
				<use xlink:href="#SVGID_36_"  style="overflow:visible;"/>
			</clipPath>
			
				<linearGradient id="SVGID_61_" gradientUnits="userSpaceOnUse" x1="-213.1503" y1="2122.0015" x2="-212.15" y2="2122.0015" gradientTransform="matrix(250.9477 0 0 -250.9477 50402.9883 534102.875)">
				<stop  offset="0" style="stop-color:#292A75"/>
				<stop  offset="5.586590e-03" style="stop-color:#292A75"/>
				<stop  offset="1" style="stop-color:#2B2062"/>
			</linearGradient>
			<rect x="-3086.59" y="1538.99" class="st17" width="251.02" height="105"/>
		</g>
		<g class="st0">
			<defs>
				<path id="SVGID_35_" d="M-2908.15,1604.52c-15.94,10.88-25.75,23.63-31.23,32.09c16.81-8.1,34.58-17.48,52.97-28.37
					c13.07-7.74,25.3-15.56,36.7-23.3C-2860.73,1585.54-2884.45,1588.35-2908.15,1604.52"/>
			</defs>
			<clipPath id="SVGID_62_">
				<use xlink:href="#SVGID_35_"  style="overflow:visible;"/>
			</clipPath>
			
				<linearGradient id="SVGID_63_" gradientUnits="userSpaceOnUse" x1="-194.9847" y1="2126.1301" x2="-193.9847" y2="2126.1301" gradientTransform="matrix(-387.4902 -342.1806 -328.478 415.5234 620257.75 -948283.375)">
				<stop  offset="0" style="stop-color:#EAC867"/>
				<stop  offset="0.2452" style="stop-color:#BF913F"/>
				<stop  offset="0.5503" style="stop-color:#DBB457"/>
				<stop  offset="0.7346" style="stop-color:#C59844"/>
				<stop  offset="1" style="stop-color:#D6AD53"/>
			</linearGradient>
			<polygon class="st18" points="-2886.57,1683.25 -2963.43,1615.38 -2902.52,1538.33 -2825.66,1606.19 			"/>
		</g>
		<g class="st0">
			<defs>
				<path id="SVGID_34_" d="M-3036.27,1608.25c18.39,10.89,36.15,20.27,52.97,28.37c-5.48-8.47-15.28-21.21-31.23-32.09
					c-23.7-16.17-47.42-18.98-58.44-19.57C-3061.57,1592.69-3049.34,1600.51-3036.27,1608.25"/>
			</defs>
			<clipPath id="SVGID_64_">
				<use xlink:href="#SVGID_34_"  style="overflow:visible;"/>
			</clipPath>
			
				<linearGradient id="SVGID_65_" gradientUnits="userSpaceOnUse" x1="-205.0153" y1="2117.8699" x2="-204.0153" y2="2117.8699" gradientTransform="matrix(387.4902 -342.1806 328.478 415.5234 -619580.4375 -948283.375)">
				<stop  offset="0" style="stop-color:#EAC867"/>
				<stop  offset="0.2452" style="stop-color:#BF913F"/>
				<stop  offset="0.5503" style="stop-color:#DBB457"/>
				<stop  offset="0.7346" style="stop-color:#C59844"/>
				<stop  offset="1" style="stop-color:#D6AD53"/>
			</linearGradient>
			<polygon class="st19" points="-3036.11,1683.24 -2959.25,1615.38 -3020.16,1538.33 -3097.02,1606.19 			"/>
		</g>
		<g class="st0">
			<defs>
				<path id="SVGID_33_" d="M-2966.61,1578.2c0.16,0.05,0.32,0.16,0.53,0.26v-0.05C-2966.29,1578.31-2966.45,1578.26-2966.61,1578.2
					L-2966.61,1578.2 M-2951.42,1510.04c-0.83,0.93-1.12,2.08-1.12,3.62c0,0.13,0,0.27,0.01,0.4c0.01,2.88,0.01,5.76,0.01,8.64
					c0,12.49-0.08,25.01-0.12,37.56v18.21c0.05,0,0.05-0.05,0.11-0.05v-9c0-0.69-0.05-1.38-0.05-2.06v-1.48l0.05-0.64v-4.98
					c0-11.59,0.09-23.15,0.09-34.68c0-3.84-0.01-7.68-0.04-11.52C-2952.48,1512.36-2952.21,1511.09-2951.42,1510.04
					L-2951.42,1510.04 M-2917.55,1491.56c-0.21,0.11-0.37,0.21-0.58,0.32c-2.54,1.38-5.08,2.75-7.68,4.13
					c-3.86,2.06-7.73,4.18-11.59,6.24c3.92-2.06,7.83-4.18,11.7-6.24c2.54-1.38,5.13-2.75,7.67-4.13c0.16-0.05,0.32-0.16,0.48-0.27
					c0.11-0.05,0.21-0.1,0.37-0.21C-2917.28,1491.46-2917.39,1491.51-2917.55,1491.56 M-2992.06,1481.93
					c1.22,0.69,2.43,1.38,3.65,2.01c5.35,2.86,10.58,5.61,15.77,8.42c3.39,1.8,6.83,3.55,10.16,5.51
					c-3.28-1.96-6.67-3.71-10.06-5.51c-5.19-2.8-10.43-5.56-15.77-8.42C-2989.58,1483.26-2990.79,1482.62-2992.06,1481.93
					L-2992.06,1481.93 M-2960.2,1459.18c-0.26,0.05-0.53,0.16-0.79,0.32c-3.23,1.75-6.46,3.55-9.69,5.35
					c-4.02,2.22-8.1,4.44-12.17,6.72c-1.8,1-3.55,1.96-5.35,2.96c-1.59,0.85-3.18,1.75-4.76,2.59c-0.42,0.21-0.74,0.42-1.11,0.63
					c0.42-0.21,0.79-0.42,1.22-0.63c1.59-0.85,3.17-1.75,4.76-2.59c1.8-1.01,3.55-1.96,5.35-2.96c4.07-2.28,8.15-4.5,12.17-6.72
					c3.23-1.8,6.46-3.6,9.69-5.35C-2960.68,1459.33-2960.47,1459.23-2960.2,1459.18L-2960.2,1459.18"/>
			</defs>
			<clipPath id="SVGID_66_">
				<use xlink:href="#SVGID_33_"  style="overflow:visible;"/>
			</clipPath>
			
				<linearGradient id="SVGID_67_" gradientUnits="userSpaceOnUse" x1="-223.8471" y1="2106.5735" x2="-222.8471" y2="2106.5735" gradientTransform="matrix(97.4248 63.1682 63.1682 -97.4248 -114277.8828 220851.0156)">
				<stop  offset="0" style="stop-color:#292A75"/>
				<stop  offset="5.586590e-03" style="stop-color:#292A75"/>
				<stop  offset="1" style="stop-color:#2B2062"/>
			</linearGradient>
			<polygon class="st20" points="-2971.32,1424.07 -2862.72,1494.48 -2939.94,1613.57 -3048.53,1543.16 			"/>
		</g>
		<g class="st0">
			<defs>
				<path id="SVGID_32_" d="M-3001.59,1548.41c-1.11-0.74-1.22-1.48-1.22-2.59c0-11.54,0.05-23.02,0.05-34.61v-20.06
					c0.05,0,0.05-0.05,0.11-0.05h0.16c0.16,0,0.32,0.05,0.48,0.11c0.53,0.11,0.95,0.42,1.43,0.69h0.05
					c1.27,0.69,2.49,1.32,3.76,2.01c0.05,0.05,0.11,0.1,0.21,0.1c2.33,1.27,4.6,2.54,6.93,3.81c0.05,0,0.11,0,0.16,0.05h0.1
					c0.95,0.53,1.8,1.01,2.75,1.48c0.42,0.26,0.85,0.53,1.32,0.74c0.48,0.21,0.9,0.42,1.38,0.69c0.48,0.26,1.01,0.53,1.48,0.79
					c4.34,2.33,8.68,4.6,13.07,6.83c2.65,1.32,3.28,2.91,3.28,5.66c-0.05,15.35,0.05,30.75,0.11,46.2v18.21
					c-0.05,0-0.05-0.05-0.11-0.05v0.05c-0.21-0.11-0.37-0.21-0.53-0.26h-0.05c-0.11-0.05-0.21-0.11-0.32-0.16
					c-0.21-0.1-0.37-0.21-0.48-0.32h-0.05c-0.64-0.69-1.27-1.32-1.96-2.01c-0.64-0.69-1.32-1.32-2.01-1.96
					c-1.32-1.38-2.7-2.7-4.07-3.97c-2.7-2.54-5.45-5.08-8.26-7.57h-0.05C-2989.47,1557.3-2995.35,1552.64-3001.59,1548.41
					 M-2952.64,1560.26c0.05-15.45,0.16-30.85,0.11-46.2c-0.05-1.75,0.21-3.02,1.11-4.02c0.11-0.21,0.32-0.42,0.58-0.58
					c0.42-0.42,0.95-0.74,1.59-1.06h0.05c3.97-2.01,7.89-4.08,11.8-6.14c3.86-2.06,7.73-4.18,11.59-6.24
					c2.59-1.38,5.14-2.75,7.68-4.13c0.21-0.11,0.37-0.21,0.58-0.32c0.16-0.05,0.26-0.1,0.37-0.16c0.05,0,0.1,0,0.16-0.05
					s0.16-0.1,0.27-0.1c0-0.05,0.05-0.05,0.11-0.05c0,0,0.05,0,0.1-0.05c0.16,0,0.27-0.05,0.42-0.05h0.16c0.05,0,0.11,0,0.21,0.05
					v20.11c0,11.54,0,23.02,0.05,34.56c0,1.11-0.1,1.85-1.22,2.59c-12.49,8.52-23.66,18.58-34.19,29.32
					c-0.21,0.21-0.58,0.32-1.43,0.74v-0.05c-0.05,0-0.05,0.05-0.11,0.05V1560.26z M-2959.25,1459.18c0.11-0.05,0.21-0.05,0.37-0.05
					h0.11c0.21,0,0.37,0,0.58,0.1c0.16,0.05,0.37,0.11,0.58,0.26c3.81,2.12,7.67,4.29,11.59,6.4c0,0,0.05,0.05,0.1,0.05
					c3.49,1.91,6.99,3.86,10.48,5.77h0.05c0.53,0.32,0.95,0.58,1.43,0.85c1.27,0.69,2.59,1.38,3.86,2.12
					c0.48,0.27,0.9,0.48,1.38,0.74c1.11,0.63,2.22,1.22,3.33,1.85c0.42,0.27,0.9,0.48,1.32,0.74c0.79,0.42,1.48,0.9,2.28,1.32
					c-0.69,0.42-1.38,0.79-2.12,1.16c-0.58,0.32-1.22,0.64-1.8,0.95c-0.05,0-0.05,0.05-0.11,0.05c-0.53,0.37-1.16,0.64-1.69,0.95
					c-1.59,0.85-3.18,1.69-4.71,2.49c-1.53,0.85-3.07,1.69-4.6,2.49h-0.05c-1.53,0.85-3.07,1.69-4.6,2.49
					c-1.53,0.85-3.02,1.64-4.5,2.43c-1.69,0.9-3.44,1.8-5.13,2.7c-1.69,0.9-3.33,1.85-5.03,2.81h-0.05
					c-0.69,0.42-1.27,0.69-1.91,0.79c-0.21,0-0.42,0.05-0.64,0.05h-0.05c-0.16,0-0.32,0-0.48-0.05h-0.05
					c-0.21,0.05-0.37,0.05-0.53,0.05h-0.05c-0.42,0-0.85-0.1-1.22-0.21c-0.48-0.11-0.9-0.32-1.32-0.64h-0.05
					c-3.33-1.96-6.77-3.71-10.16-5.51c-5.19-2.8-10.43-5.56-15.77-8.42c-1.22-0.63-2.43-1.32-3.65-2.01
					c-1.22-0.69-2.49-1.38-3.81-2.07h-0.05c-0.05-0.05-0.05-0.05-0.11-0.11c-0.27-0.11-0.53-0.26-0.85-0.42
					c0.79-0.42,1.53-0.85,2.33-1.27c0.11-0.11,0.21-0.16,0.32-0.21c0.05-0.05,0.11-0.05,0.16-0.11c0.37-0.21,0.69-0.42,1.11-0.63
					c1.59-0.85,3.18-1.75,4.76-2.59c1.8-1.01,3.55-1.96,5.35-2.96c4.07-2.28,8.15-4.5,12.17-6.72c3.23-1.8,6.46-3.6,9.69-5.35
					c0.26-0.16,0.53-0.26,0.79-0.32h0.05c0.05,0,0.16-0.05,0.21-0.05h0.21c0.16,0,0.26,0,0.42,0.05H-2959.25z M-2959.25,1444.73
					c-1.27-0.11-2.54,0.16-4.02,1.06c-0.85,0.42-1.64,0.9-2.44,1.38h-0.05c-0.1,0.11-0.26,0.21-0.42,0.26
					c-2.43,1.43-4.92,2.8-7.36,4.23c-0.21,0.05-0.37,0.16-0.53,0.27c-2.7,1.53-5.45,3.07-8.15,4.55c-0.53,0.32-1.01,0.58-1.48,0.9
					c-1.53,0.85-3.07,1.69-4.6,2.59c-0.48,0.21-0.95,0.53-1.43,0.79l-4.97,2.86c-0.42,0.27-0.9,0.53-1.32,0.79h-0.05
					c-1.43,0.85-2.91,1.69-4.39,2.59c-0.42,0.26-0.79,0.48-1.22,0.74c-0.21,0.11-0.42,0.26-0.64,0.37
					c-3.65,2.22-7.67,3.86-11.17,6.51c-0.42,0.21-0.9,0.48-1.38,0.79c-0.64,0.16-0.74,0.58-0.74,1.06v9.1c0,1.64,0,3.28,0.05,4.92
					v18.89c0,9.42,0.05,18.79,0.05,28.26c-0.37,0.79-0.74,1.11-1.11,1.11c-0.69,0-1.32-1.01-1.85-1.27
					c-9.31-5.19-18.95-9.79-28.95-13.6c-11.33-4.34-22.92-7.62-34.82-9.9c-0.74-0.11-1.27-0.16-1.69-0.05l-0.37,0.26h-0.11
					c-0.37,0.37-0.42,1.01-0.37,1.96c0.16,3.12-0.95,6.88,0.42,9.37c1.38,2.54,5.66,1.8,8.68,2.49c9.9,2.49,19.42,6.14,29.06,9.58
					c9.95,4.34,19.64,9.26,28.9,15.08c21.33,13.34,39.38,30.33,55.41,49.59c1.59,1.91,2.28,2.7,3.07,2.44
					c0.79,0.26,1.43-0.53,3.02-2.44c16.04-19.26,34.14-36.25,55.46-49.59c9.26-5.82,18.95-10.74,28.9-15.08
					c9.58-3.44,19.11-7.09,29.06-9.58c3.02-0.69,7.25,0.05,8.68-2.49c1.11-2.01,0.58-4.87,0.42-7.51c0-0.64-0.05-1.27,0-1.85
					c0.05-0.95-0.05-1.59-0.37-1.96h-0.05c-0.16-0.1-0.32-0.21-0.48-0.26c-0.16-0.05-0.32-0.05-0.53-0.05
					c-0.32,0-0.69,0.05-1.16,0.11c-0.26,0.11-0.58,0.16-0.85,0.21c-11.59,2.22-22.92,5.45-33.98,9.68
					c-10,3.81-19.64,8.42-28.95,13.6c-0.79,0.42-1.85,2.49-2.91,0.16c0-9.42,0-18.79,0.05-28.16v-33.03c0-0.42-0.1-0.9-0.74-1.06
					c-0.42-0.32-0.9-0.58-1.38-0.79c-0.58-0.48-1.16-0.9-1.8-1.27c-0.16-0.1-0.32-0.21-0.48-0.26c-2.86-1.8-5.98-3.23-8.84-4.97
					c-0.16-0.05-0.26-0.16-0.37-0.21c-0.42-0.26-0.85-0.48-1.27-0.74c-1.43-0.85-2.86-1.75-4.34-2.54
					c-0.42-0.26-0.85-0.58-1.32-0.85c-1.64-0.95-3.28-1.85-4.98-2.81c-0.48-0.32-0.95-0.58-1.43-0.85c-2.49-1.43-5.03-2.8-7.57-4.23
					c-0.53-0.32-1.01-0.58-1.53-0.9c-1.8-1.01-3.65-2.07-5.45-3.07c-0.21-0.11-0.37-0.21-0.53-0.27c-2.43-1.43-4.92-2.8-7.41-4.23
					c-0.16-0.05-0.32-0.16-0.48-0.26c-0.79-0.48-1.59-0.95-2.38-1.38c-1.33-0.78-2.46-1.08-3.52-1.08
					C-2958.92,1444.71-2959.09,1444.71-2959.25,1444.73"/>
			</defs>
			<clipPath id="SVGID_68_">
				<use xlink:href="#SVGID_32_"  style="overflow:visible;"/>
			</clipPath>
			
				<linearGradient id="SVGID_69_" gradientUnits="userSpaceOnUse" x1="-213.1152" y1="2121.9998" x2="-212.1152" y2="2121.9998" gradientTransform="matrix(251.616 0 0 -251.616 50538.1289 535453.8125)">
				<stop  offset="0" style="stop-color:#292A75"/>
				<stop  offset="5.586590e-03" style="stop-color:#292A75"/>
				<stop  offset="1" style="stop-color:#2B2062"/>
			</linearGradient>
			<rect x="-3085.74" y="1444.62" class="st21" width="252.72" height="160.36"/>
		</g>
		<g class="st0">
			<defs>
				<polygon id="SVGID_31_" points="-2944.56,1515.62 -2944.56,1524.44 -2936.56,1520.12 -2936.56,1511.31 				"/>
			</defs>
			<clipPath id="SVGID_70_">
				<use xlink:href="#SVGID_31_"  style="overflow:visible;"/>
			</clipPath>
			
				<linearGradient id="SVGID_71_" gradientUnits="userSpaceOnUse" x1="-209.8817" y1="2115.593" x2="-208.8817" y2="2115.593" gradientTransform="matrix(235.1104 152.4407 152.4407 -235.1104 -276239.875 530818.0625)">
				<stop  offset="0" style="stop-color:#292A75"/>
				<stop  offset="5.586590e-03" style="stop-color:#292A75"/>
				<stop  offset="1" style="stop-color:#2B2062"/>
			</linearGradient>
			<polygon class="st22" points="-2942.19,1507.65 -2930.56,1515.19 -2938.93,1528.09 -2950.56,1520.55 			"/>
		</g>
		<g class="st0">
			<defs>
				<polygon id="SVGID_30_" points="-2995.88,1542.5 -2987.54,1547.8 -2987.45,1547.86 -2987.45,1536.89 -2995.88,1531.54 				"/>
			</defs>
			<clipPath id="SVGID_72_">
				<use xlink:href="#SVGID_30_"  style="overflow:visible;"/>
			</clipPath>
			
				<linearGradient id="SVGID_73_" gradientUnits="userSpaceOnUse" x1="-209.8859" y1="2115.5901" x2="-208.8859" y2="2115.5901" gradientTransform="matrix(235.0106 152.376 152.376 -235.0106 -276147.5625 530632.125)">
				<stop  offset="0" style="stop-color:#292A75"/>
				<stop  offset="5.586590e-03" style="stop-color:#292A75"/>
				<stop  offset="1" style="stop-color:#2B2062"/>
			</linearGradient>
			<polygon class="st23" points="-2993.39,1527.69 -2980,1536.37 -2989.95,1551.71 -3003.33,1543.03 			"/>
		</g>
		<g class="st0">
			<defs>
				<polygon id="SVGID_29_" points="-2929.67,1506.41 -2929.67,1515.23 -2921.66,1510.91 -2921.66,1502.1 				"/>
			</defs>
			<clipPath id="SVGID_74_">
				<use xlink:href="#SVGID_29_"  style="overflow:visible;"/>
			</clipPath>
			
				<linearGradient id="SVGID_75_" gradientUnits="userSpaceOnUse" x1="-209.8853" y1="2115.5906" x2="-208.8853" y2="2115.5906" gradientTransform="matrix(235.0245 152.3849 152.3849 -235.0245 -276130.1563 530611.3125)">
				<stop  offset="0" style="stop-color:#292A75"/>
				<stop  offset="5.586590e-03" style="stop-color:#292A75"/>
				<stop  offset="1" style="stop-color:#2B2062"/>
			</linearGradient>
			<polygon class="st24" points="-2927.3,1498.44 -2915.66,1505.98 -2924.03,1518.88 -2935.66,1511.34 			"/>
		</g>
		<g class="st0">
			<defs>
				<polygon id="SVGID_28_" points="-2981.03,1554.93 -2972.7,1560.22 -2972.61,1560.29 -2972.61,1549.33 -2981.03,1543.96 				"/>
			</defs>
			<clipPath id="SVGID_76_">
				<use xlink:href="#SVGID_28_"  style="overflow:visible;"/>
			</clipPath>
			
				<linearGradient id="SVGID_77_" gradientUnits="userSpaceOnUse" x1="-209.8892" y1="2115.5881" x2="-208.8892" y2="2115.5881" gradientTransform="matrix(234.9338 152.3261 152.3261 -234.9338 -276058.4063 530461)">
				<stop  offset="0" style="stop-color:#292A75"/>
				<stop  offset="5.586590e-03" style="stop-color:#292A75"/>
				<stop  offset="1" style="stop-color:#2B2062"/>
			</linearGradient>
			<polygon class="st25" points="-2978.54,1540.12 -2965.15,1548.8 -2975.1,1564.13 -2988.48,1555.46 			"/>
		</g>
	</g>
</g>
</svg>
