<?xml version="1.0" encoding="utf-8"?>
<!-- Generator: Adobe Illustrator 23.0.1, SVG Export Plug-In . SVG Version: 6.00 Build 0)  -->
<svg version="1.1" id="svg" xmlns="http://www.w3.org/2000/svg" xmlns:xlink="http://www.w3.org/1999/xlink" x="0px" y="0px"
	 viewBox="0 0 400 400" style="enable-background:new 0 0 400 400;" xml:space="preserve">
<style type="text/css">
	.st0{fill-rule:evenodd;clip-rule:evenodd;fill:#27276E;}
</style>
<g id="svgg">
	<path id="path0" class="st0" d="M43.4,20.6c-18.1,4.5-23.8,15-23.8,43.4c0,26.4,3.7,34.9,18,41.7l5.1,2.4l53.1,0.2l53.1,0.2
		l19.9,19.1c19.4,18.7,19.9,19.1,23.1,19.1c6.4,0,6.7-0.9,6.7-20.9c0-18.4,0-18.2,3.8-18.2c6.1,0,16.8-8.9,20.7-17l2.5-5.2V64.1
		V42.6l-2.1-4.5c-4.2-9-13.1-16-22.4-17.8C194.4,19.1,48.4,19.4,43.4,20.6 M202,35.1c8.5,3.9,10.5,9.4,10.5,29.2
		c0,23.8-4.7,31-20.1,31c-6.5,0-7.2,1.6-7.2,16.4v12.6L170,109.8l-15.2-14.5h-52.7c-59,0-58.1,0.1-63.2-5.3c-5.6-5.9-5.7-6.4-5.7-26
		c0-21.3,1.4-25.3,10.5-29.2C48.4,32.8,197.6,33,202,35.1 M60,43.2C58.1,44.6,57,48,57,52.4c0,2.1-0.1,3.9-0.3,3.9
		c-0.2,0-1.8-0.5-3.6-1.2c-7.2-2.5-11.7-0.4-11.7,5.5c0,4,1.8,5.9,7.4,7.4c4.2,1.2,4.3,1.4,1.2,5.6c-4.5,6.2-2.5,12.7,3.9,12.7
		c3.4,0,5-1.2,8.9-6.6l1.4-1.9l1.7,2.3c4.1,5.6,5,6.2,8.3,6.2c6.8,0,8.9-6.3,4.2-12.8c-3.2-4.4-3.2-4.3,1.3-5.4
		c5.9-1.5,8.8-5.5,7.1-9.9c-1.6-4.3-5.4-5.3-11.7-3.1c-1.8,0.6-3.4,1.2-3.5,1.2c-0.1,0-0.3-2.5-0.5-5.6C70.5,43.1,65,39.3,60,43.2
		 M118.5,43.2c-1.8,1.4-2.9,4.8-2.9,9.2c0,2.1-0.1,3.9-0.3,3.9c-0.2,0-1.8-0.5-3.6-1.2c-7.2-2.5-11.7-0.4-11.7,5.5
		c0,4,1.8,5.9,7.4,7.4c4.2,1.2,4.3,1.3,1.1,5.8c-7.3,10.3,3.7,18.1,11.2,7.9c3.2-4.3,3-4.3,6.1,0c2.8,3.9,5.5,5.3,8.7,4.6
		c5.5-1.2,6.6-7.1,2.5-12.8c-3.1-4.3-3.1-4.5,0-5.1c6.3-1.2,10-5.6,8.4-10.1c-1.6-4.5-5.4-5.5-11.8-3.3c-1.8,0.6-3.5,1.2-3.6,1.2
		c-0.2,0-0.3-2-0.3-4.3c0-4.6-1.5-8.4-3.6-9.2C124,41.9,119.9,42.1,118.5,43.2 M177.1,43.2c-1.8,1.4-2.9,4.8-2.9,9.2
		c0,2.1-0.1,3.9-0.3,3.9c-0.2,0-1.8-0.5-3.6-1.2c-7.2-2.5-11.7-0.4-11.7,5.5c0,4,1.8,5.9,7.4,7.4c4.2,1.2,4.3,1.3,1.1,5.8
		c-2.8,3.9-3.1,7.1-1.2,10.1c2.8,4.3,8.5,3.3,12.4-2.2c3.1-4.3,2.9-4.3,6,0c2.8,3.9,5.5,5.3,8.7,4.6c5.5-1.2,6.6-7.1,2.5-12.8
		c-3.2-4.3-3.2-4.3,0.9-5.4c7.4-2,10.2-7.8,5.9-12.3c-2.2-2.3-5.2-2.6-10.2-0.8c-1.8,0.6-3.5,1.2-3.6,1.2c-0.2,0-0.3-2-0.3-4.3
		c0-4.6-1.5-8.4-3.6-9.2C182.6,41.9,178.5,42.1,177.1,43.2 M220.6,106.3c-3.2,1.3-4.6,7.3-2.3,10.3c2,2.7,4.9,3,32.8,3h27.5
		l16.6,16.6l16.6,16.6v63.4v63.4l-13.6,9.9c-7.5,5.5-13.8,9.9-14.1,9.9c-0.3,0-9-6.2-19.4-13.8c-24.1-17.6-19.4-17.6-43.7,0.2
		l-19.1,13.9l-14.1-10.2l-14.1-10.2l0-68.4l0-68.4l-1.8-1.7c-2.7-2.5-7.7-2.4-9.9,0.4c-1.6,2-1.6,2.9-1.6,30.3l0,28.2l-26.2,19.1
		c-14.4,10.5-26.7,19.8-27.3,20.7c-1.4,2.1-1.7,134.3-0.2,137.4c1.7,3.8-2.7,3.6,137,3.6h132.3l2.2-1.9l2.2-1.9l0.2-67.2
		c0.1-41-0.1-67.9-0.5-69.1c-0.5-1.3-9.9-8.6-27.4-21.4l-26.6-19.4v-26.2v-26.2l-20.9-20.9L284,105.5l-30.8,0
		C236.1,105.5,221.5,105.9,220.6,106.3 M234.9,158.9c-8.8,3.2-13.8,11.5-13.8,22.7v7.3l-3.4,0.8c-4.5,1.1-8.2,3.7-11.1,7.8l-2.4,3.4
		l-0.2,21.6c-0.4,35.6,0.1,36.1,38.8,36.1c38.4,0,39.1-0.7,39.1-35.2c0-26.6-2-31.1-14.9-33.9c-2-0.4-2.1-0.6-2.4-8.1
		C263.9,163.6,250.2,153.3,234.9,158.9 M246.8,172.4c3.2,1.9,4.1,3.9,4.5,10.6l0.4,6.1h-8.7h-8.7v-5
		C234.4,173.7,240,168.3,246.8,172.4 M267.5,204.9c1,1.4,1.2,4.7,1.2,19.2v17.4l-1.9,1.9l-1.9,1.9H243H221l-1.9-1.9l-1.9-1.9V224
		c0-23.4-3.1-20.9,25.8-20.9C266.2,203.1,266.3,203.1,267.5,204.9 M160.2,243c0,15-0.3,25.7-0.7,25.6c-1.2-0.4-35.2-25.2-35.2-25.7
		c0-0.5,34.5-25.7,35.3-25.7C159.9,217.2,160.2,228.8,160.2,243 M343.7,229.8c9.5,6.9,17.2,12.9,17.2,13.2c0,0.6-34,25.7-34.8,25.7
		c-0.2,0-0.4-11.6-0.4-25.8c0-14.2,0.2-25.8,0.4-25.8C326.3,217.2,334.3,222.8,343.7,229.8 M162.5,288.1
		c14.4,10.5,26.5,19.3,26.8,19.7c0.4,0.3-14.9,11.9-34,25.8c-19,13.9-35.1,25.6-35.6,26c-0.8,0.6-1-9.8-1-51.3v-52.1l8.8,6.4
		C132.4,266.2,148.1,277.6,162.5,288.1 M366.1,359.1c-0.3,0.3-67-48.1-69.1-50.1c-0.8-0.8,5.4-5.7,34-26.5l35-25.5l0.2,50.9
		C366.3,335.9,366.3,359,366.1,359.1 M298.3,327.3l54.2,39.5l-54.8,0.2c-30.1,0.1-79.5,0.1-109.6,0l-54.8-0.2l54.7-39.9
		c30.1-22,55-39.7,55.4-39.5C243.8,287.6,268.5,305.6,298.3,327.3"/>
</g>
</svg>
